# Blender v2.79 (sub 0) OBJ File: ''
# www.blender.org
mtllib universal_tuningkit.mtl
o menu_level2_root
v 0.093750 1.187500 0.010743
v 0.093750 1.250000 0.010743
v -0.093750 1.250000 0.010743
v -0.093750 1.187500 0.010743
vt 0.343750 0.406250
vt 0.343750 0.468750
vt 0.281250 0.468750
vt 0.281250 0.406250
vn 0.0000 -0.0000 1.0000
usemtl m_fcf4259d-6d73-c19d-1633-aa271e7b12e4
s 1
f 1/1/1 2/2/1 3/3/1 4/4/1
o menu_level1_vmtype_off_2
v 0.343750 0.718750 0.007813
v 0.343750 0.843750 0.007813
v 0.218750 0.843750 0.007813
v 0.218750 0.718750 0.007813
vt 0.750000 0.750000
vt 0.750000 1.000000
vt 0.500000 1.000000
vt 0.500000 0.750000
vn 0.0000 -0.0000 1.0000
usemtl m_fcf4259d-6d73-c19d-1633-aa271e7b12e4
s 1
f 5/5/2 6/6/2 7/7/2 8/8/2
o menu_level1_vmtype_on_2
v 0.343750 0.875000 0.010743
v 0.343750 1.000000 0.010743
v 0.218750 1.000000 0.010743
v 0.218750 0.875000 0.010743
vt 0.750000 0.500000
vt 0.750000 0.750000
vt 0.500000 0.750000
vt 0.500000 0.500000
vn 0.0000 -0.0000 1.0000
usemtl m_fcf4259d-6d73-c19d-1633-aa271e7b12e4
s 1
f 9/9/3 10/10/3 11/11/3 12/12/3
o menu_level2_vmtype_off_4
v 0.343750 1.031250 0.007813
v 0.343750 1.156250 0.007813
v 0.218750 1.156250 0.007813
v 0.218750 1.031250 0.007813
vt 0.750000 0.750000
vt 0.750000 1.000000
vt 0.500000 1.000000
vt 0.500000 0.750000
vn 0.0000 -0.0000 1.0000
usemtl m_fcf4259d-6d73-c19d-1633-aa271e7b12e4
s 1
f 13/13/4 14/14/4 15/15/4 16/16/4
o mesh
v 0.125000 0.250000 0.125000
v 0.250000 0.125000 0.250000
v 0.250000 0.125000 -0.250000
v 0.125000 0.250000 -0.125000
v -0.125000 0.250000 -0.125000
v -0.250000 0.125000 -0.250000
v -0.250000 0.125000 0.250000
v -0.125000 0.250000 0.125000
v 0.250000 0.000000 -0.250000
v 0.250000 -0.000000 0.250000
v -0.250000 -0.000000 0.250000
v -0.250000 0.000000 -0.250000
vt 0.062500 0.218750
vt 0.000000 0.125000
vt 0.250000 0.125000
vt 0.187500 0.218750
vt 0.343750 0.093750
vt 0.281250 0.000000
vt 0.531250 0.000000
vt 0.468750 0.093750
vt 0.281250 0.125000
vt 0.406250 0.125000
vt 0.406250 0.250000
vt 0.281250 0.250000
vt 0.250000 0.750000
vt 0.250000 1.000000
vt 0.000000 1.000000
vt 0.000000 0.750000
vt 0.062500 0.093750
vt 0.000000 0.000000
vt 0.250000 0.000000
vt 0.187500 0.093750
vt 0.062500 0.343750
vt 0.000000 0.250000
vt 0.250000 0.250000
vt 0.187500 0.343750
vt 0.250000 0.468750
vt 0.250000 0.531250
vt 0.000000 0.531250
vt 0.000000 0.468750
vt 0.250000 0.656250
vt 0.250000 0.718750
vt 0.000000 0.718750
vt 0.000000 0.656250
vt 0.250000 0.562500
vt 0.250000 0.625000
vt 0.000000 0.625000
vt 0.000000 0.562500
vt 0.250000 0.375000
vt 0.250000 0.437500
vt 0.000000 0.437500
vt 0.000000 0.375000
vn 0.7071 0.7071 0.0000
vn -0.7071 0.7071 0.0000
vn 0.0000 1.0000 0.0000
vn 0.0000 -1.0000 -0.0000
vn 0.0000 0.7071 0.7071
vn 0.0000 0.7071 -0.7071
vn -1.0000 -0.0000 0.0000
vn 0.0000 0.0000 -1.0000
vn 1.0000 0.0000 0.0000
vn 0.0000 -0.0000 1.0000
usemtl m_fcf4259d-6d73-c19d-1633-aa271e7b12e4
s 1
f 17/17/5 18/18/5 19/19/5 20/20/5
f 21/21/6 22/22/6 23/23/6 24/24/6
f 24/25/7 17/26/7 20/27/7 21/28/7
f 25/29/8 26/30/8 27/31/8 28/32/8
f 24/33/9 23/34/9 18/35/9 17/36/9
f 20/37/10 19/38/10 22/39/10 21/40/10
f 27/41/11 23/42/11 22/43/11 28/44/11
f 28/45/12 22/46/12 19/47/12 25/48/12
f 25/49/13 19/50/13 18/51/13 26/52/13
f 26/53/14 18/54/14 23/55/14 27/56/14
o menu_level2_vmtype_on_3
v 0.343750 0.718750 0.010743
v 0.343750 0.843750 0.010743
v 0.218750 0.843750 0.010743
v 0.218750 0.718750 0.010743
vt 0.750000 0.500000
vt 0.750000 0.750000
vt 0.500000 0.750000
vt 0.500000 0.500000
vn 0.0000 -0.0000 1.0000
usemtl m_fcf4259d-6d73-c19d-1633-aa271e7b12e4
s 1
f 29/57/15 30/58/15 31/59/15 32/60/15
o menu_level2_vmtype_on_4
v 0.343750 0.562500 0.010743
v 0.343750 0.687500 0.010743
v 0.218750 0.687500 0.010743
v 0.218750 0.562500 0.010743
vt 0.750000 0.500000
vt 0.750000 0.750000
vt 0.500000 0.750000
vt 0.500000 0.500000
vn 0.0000 -0.0000 1.0000
usemtl m_fcf4259d-6d73-c19d-1633-aa271e7b12e4
s 1
f 33/61/16 34/62/16 35/63/16 36/64/16
o menu_level1_vmtype_off_1
v 0.343750 0.562500 0.007813
v 0.343750 0.687500 0.007813
v 0.218750 0.687500 0.007813
v 0.218750 0.562500 0.007813
vt 0.750000 0.750000
vt 0.750000 1.000000
vt 0.500000 1.000000
vt 0.500000 0.750000
vn 0.0000 -0.0000 1.0000
usemtl m_fcf4259d-6d73-c19d-1633-aa271e7b12e4
s 1
f 37/65/17 38/66/17 39/67/17 40/68/17
o menu_root_translucent
v 0.375000 0.531250 0.003906
v 0.375000 1.281250 0.003906
v -0.375000 1.281250 0.003906
v -0.375000 0.531250 0.003906
v -0.375000 1.281250 -0.003906
v 0.375000 1.281250 -0.003906
v 0.375000 0.531250 -0.003906
v -0.375000 0.531250 -0.003906
vt 1.000000 0.125000
vt 1.000000 0.500000
vt 0.625000 0.500000
vt 0.625000 0.125000
vt 1.000000 0.500000
vt 0.625000 0.500000
vt 0.625000 0.125000
vt 1.000000 0.125000
vn 0.0000 -0.0000 1.0000
vn 0.0000 0.0000 -1.0000
usemtl m_fcf4259d-6d73-c19d-1633-aa271e7b12e4
s 1
f 41/69/18 42/70/18 43/71/18 44/72/18
f 45/73/19 46/74/19 47/75/19 48/76/19
o menu_level3_on_1
v -0.218750 1.031250 0.007813
v -0.218750 1.156250 0.007813
v -0.343750 1.156250 0.007813
v -0.343750 1.031250 0.007813
vt 0.500000 0.750000
vt 0.500000 1.000000
vt 0.250000 1.000000
vt 0.250000 0.750000
vn 0.0000 -0.0000 1.0000
usemtl m_fcf4259d-6d73-c19d-1633-aa271e7b12e4
s 1
f 49/77/20 50/78/20 51/79/20 52/80/20
o menu_level1_vmtype_on_3
v 0.343750 0.718750 0.010743
v 0.343750 0.843750 0.010743
v 0.218750 0.843750 0.010743
v 0.218750 0.718750 0.010743
vt 0.750000 0.500000
vt 0.750000 0.750000
vt 0.500000 0.750000
vt 0.500000 0.500000
vn 0.0000 -0.0000 1.0000
usemtl m_fcf4259d-6d73-c19d-1633-aa271e7b12e4
s 1
f 53/81/21 54/82/21 55/83/21 56/84/21
o menu_level1_vmtype_on_1
v 0.343750 1.031250 0.010743
v 0.343750 1.156250 0.010743
v 0.218750 1.156250 0.010743
v 0.218750 1.031250 0.010743
vt 0.750000 0.500000
vt 0.750000 0.750000
vt 0.500000 0.750000
vt 0.500000 0.500000
vn 0.0000 -0.0000 1.0000
usemtl m_fcf4259d-6d73-c19d-1633-aa271e7b12e4
s 1
f 57/85/22 58/86/22 59/87/22 60/88/22
o menu_level1_vmtype_off_3
v 0.343750 0.875000 0.007813
v 0.343750 1.000000 0.007813
v 0.218750 1.000000 0.007813
v 0.218750 0.875000 0.007813
vt 0.750000 0.750000
vt 0.750000 1.000000
vt 0.500000 1.000000
vt 0.500000 0.750000
vn 0.0000 -0.0000 1.0000
usemtl m_fcf4259d-6d73-c19d-1633-aa271e7b12e4
s 1
f 61/89/23 62/90/23 63/91/23 64/92/23
o menu_level3_root
v 0.343750 1.187500 0.010743
v 0.343750 1.250000 0.010743
v 0.156250 1.250000 0.010743
v 0.156250 1.187500 0.010743
vt 0.343750 0.406250
vt 0.343750 0.468750
vt 0.281250 0.468750
vt 0.281250 0.406250
vn 0.0000 -0.0000 1.0000
usemtl m_fcf4259d-6d73-c19d-1633-aa271e7b12e4
s 1
f 65/93/24 66/94/24 67/95/24 68/96/24
o menu_level3_off_2
v -0.218750 0.875000 0.007813
v -0.218750 1.000000 0.007813
v -0.343750 1.000000 0.007813
v -0.343750 0.875000 0.007813
vt 0.500000 0.500000
vt 0.500000 0.750000
vt 0.250000 0.750000
vt 0.250000 0.500000
vn 0.0000 -0.0000 1.0000
usemtl m_fcf4259d-6d73-c19d-1633-aa271e7b12e4
s 1
f 69/97/25 70/98/25 71/99/25 72/100/25
o emitter
v 0.031250 0.312500 -0.031250
v 0.031250 0.312500 0.031250
v 0.031250 0.250000 0.031250
v 0.031250 0.250000 -0.031250
v -0.031250 0.250000 0.031250
v -0.031250 0.312500 0.031250
v -0.031250 0.312500 -0.031250
v -0.031250 0.250000 -0.031250
vt 0.312500 0.375000
vt 0.281250 0.375000
vt 0.281250 0.343750
vt 0.312500 0.343750
vt 0.375000 0.343750
vt 0.375000 0.375000
vt 0.343750 0.375000
vt 0.343750 0.343750
vt 0.406250 0.343750
vt 0.437500 0.343750
vt 0.437500 0.375000
vt 0.406250 0.375000
vt 0.437500 0.281250
vt 0.437500 0.312500
vt 0.406250 0.312500
vt 0.406250 0.281250
vt 0.312500 0.281250
vt 0.312500 0.312500
vt 0.281250 0.312500
vt 0.281250 0.281250
vt 0.375000 0.312500
vt 0.343750 0.312500
vt 0.343750 0.281250
vt 0.375000 0.281250
vn 1.0000 0.0000 0.0000
vn -1.0000 0.0000 0.0000
vn 0.0000 1.0000 0.0000
vn 0.0000 -1.0000 0.0000
vn 0.0000 -0.0000 1.0000
vn 0.0000 0.0000 -1.0000
usemtl m_fcf4259d-6d73-c19d-1633-aa271e7b12e4
s 1
f 73/101/26 74/102/26 75/103/26 76/104/26
f 77/105/27 78/106/27 79/107/27 80/108/27
f 78/109/28 74/110/28 73/111/28 79/112/28
f 76/113/29 75/114/29 77/115/29 80/116/29
f 75/117/30 74/118/30 78/119/30 77/120/30
f 79/121/31 73/122/31 76/123/31 80/124/31
o menu_level3_off_3
v -0.218750 0.718750 0.007813
v -0.218750 0.843750 0.007813
v -0.343750 0.843750 0.007813
v -0.343750 0.718750 0.007813
vt 0.500000 0.500000
vt 0.500000 0.750000
vt 0.250000 0.750000
vt 0.250000 0.500000
vn 0.0000 -0.0000 1.0000
usemtl m_fcf4259d-6d73-c19d-1633-aa271e7b12e4
s 1
f 81/125/32 82/126/32 83/127/32 84/128/32
o menu_emitter_translucent
v 0.062500 0.281250 0.003906
v 0.375000 0.531250 0.003906
v -0.375000 0.531250 0.003906
v -0.062500 0.281250 0.003906
v -0.375000 0.531250 -0.003906
v 0.375000 0.531250 -0.003906
v 0.062500 0.281250 -0.003906
v -0.062500 0.281250 -0.003906
vt 0.843750 0.000000
vt 1.000000 0.125000
vt 0.625000 0.125000
vt 0.781250 0.000000
vt 1.000000 0.125000
vt 0.625000 0.125000
vt 0.781250 0.000000
vt 0.843750 0.000000
vn 0.0000 -0.0000 1.0000
vn 0.0000 0.0000 -1.0000
usemtl m_fcf4259d-6d73-c19d-1633-aa271e7b12e4
s 1
f 85/129/33 86/130/33 87/131/33 88/132/33
f 89/133/34 90/134/34 91/135/34 92/136/34
o menu_level1_vmtype_on_4
v 0.343750 0.562500 0.010743
v 0.343750 0.687500 0.010743
v 0.218750 0.687500 0.010743
v 0.218750 0.562500 0.010743
vt 0.750000 0.500000
vt 0.750000 0.750000
vt 0.500000 0.750000
vt 0.500000 0.500000
vn 0.0000 -0.0000 1.0000
usemtl m_fcf4259d-6d73-c19d-1633-aa271e7b12e4
s 1
f 93/137/35 94/138/35 95/139/35 96/140/35
o menu_level3_on_3
v -0.218750 0.718750 0.007813
v -0.218750 0.843750 0.007813
v -0.343750 0.843750 0.007813
v -0.343750 0.718750 0.007813
vt 0.500000 0.750000
vt 0.500000 1.000000
vt 0.250000 1.000000
vt 0.250000 0.750000
vn 0.0000 -0.0000 1.0000
usemtl m_fcf4259d-6d73-c19d-1633-aa271e7b12e4
s 1
f 97/141/36 98/142/36 99/143/36 100/144/36
o menu_level2_vmtype_off_2
v 0.343750 0.718750 0.007813
v 0.343750 0.843750 0.007813
v 0.218750 0.843750 0.007813
v 0.218750 0.718750 0.007813
vt 0.750000 0.750000
vt 0.750000 1.000000
vt 0.500000 1.000000
vt 0.500000 0.750000
vn 0.0000 -0.0000 1.0000
usemtl m_fcf4259d-6d73-c19d-1633-aa271e7b12e4
s 1
f 101/145/37 102/146/37 103/147/37 104/148/37
o menu_level2_vmtype_off_1
v 0.343750 0.562500 0.007813
v 0.343750 0.687500 0.007813
v 0.218750 0.687500 0.007813
v 0.218750 0.562500 0.007813
vt 0.750000 0.750000
vt 0.750000 1.000000
vt 0.500000 1.000000
vt 0.500000 0.750000
vn 0.0000 -0.0000 1.0000
usemtl m_fcf4259d-6d73-c19d-1633-aa271e7b12e4
s 1
f 105/149/38 106/150/38 107/151/38 108/152/38
o menu_level2
v -0.218750 0.562500 0.011719
v -0.218750 0.687500 0.011719
v -0.343750 0.687500 0.011719
v -0.343750 0.562500 0.011719
v -0.218750 1.031250 0.011719
v -0.218750 1.156250 0.011719
v -0.343750 1.156250 0.011719
v -0.343750 1.031250 0.011719
v 0.187500 1.031250 0.011719
v 0.187500 1.156250 0.011719
v 0.062500 1.156250 0.011719
v 0.062500 1.031250 0.011719
v -0.218750 0.875000 0.011719
v -0.218750 1.000000 0.011719
v -0.343750 1.000000 0.011719
v -0.343750 0.875000 0.011719
v 0.187500 0.875000 0.011719
v 0.187500 1.000000 0.011719
v 0.062500 1.000000 0.011719
v 0.062500 0.875000 0.011719
v 0.187500 0.718750 0.011719
v 0.187500 0.843750 0.011719
v 0.062500 0.843750 0.011719
v 0.062500 0.718750 0.011719
v -0.218750 0.718750 0.011719
v -0.218750 0.843750 0.011719
v -0.343750 0.843750 0.011719
v -0.343750 0.718750 0.011719
v 0.187500 0.562500 0.011719
v 0.187500 0.687500 0.011719
v 0.062500 0.687500 0.011719
v 0.062500 0.562500 0.011719
vt 1.000000 0.750000
vt 1.000000 1.000000
vt 0.750000 1.000000
vt 0.750000 0.750000
vt 1.000000 0.750000
vt 1.000000 1.000000
vt 0.750000 1.000000
vt 0.750000 0.750000
vt 1.000000 0.500000
vt 1.000000 0.750000
vt 0.750000 0.750000
vt 0.750000 0.500000
vt 1.000000 0.750000
vt 1.000000 1.000000
vt 0.750000 1.000000
vt 0.750000 0.750000
vt 1.000000 0.500000
vt 1.000000 0.750000
vt 0.750000 0.750000
vt 0.750000 0.500000
vt 1.000000 0.500000
vt 1.000000 0.750000
vt 0.750000 0.750000
vt 0.750000 0.500000
vt 1.000000 0.750000
vt 1.000000 1.000000
vt 0.750000 1.000000
vt 0.750000 0.750000
vt 1.000000 0.500000
vt 1.000000 0.750000
vt 0.750000 0.750000
vt 0.750000 0.500000
vn 0.0000 -0.0000 1.0000
usemtl m_fcf4259d-6d73-c19d-1633-aa271e7b12e4
s 1
f 109/153/39 110/154/39 111/155/39 112/156/39
f 113/157/39 114/158/39 115/159/39 116/160/39
f 117/161/39 118/162/39 119/163/39 120/164/39
f 121/165/39 122/166/39 123/167/39 124/168/39
f 125/169/39 126/170/39 127/171/39 128/172/39
f 129/173/39 130/174/39 131/175/39 132/176/39
f 133/177/39 134/178/39 135/179/39 136/180/39
f 137/181/39 138/182/39 139/183/39 140/184/39
o menu_level2_vmtype_off_3
v 0.343750 0.875000 0.007813
v 0.343750 1.000000 0.007813
v 0.218750 1.000000 0.007813
v 0.218750 0.875000 0.007813
vt 0.750000 0.750000
vt 0.750000 1.000000
vt 0.500000 1.000000
vt 0.500000 0.750000
vn 0.0000 -0.0000 1.0000
usemtl m_fcf4259d-6d73-c19d-1633-aa271e7b12e4
s 1
f 141/185/40 142/186/40 143/187/40 144/188/40
o menu_level2_vmtype_on_1
v 0.343750 1.031250 0.010743
v 0.343750 1.156250 0.010743
v 0.218750 1.156250 0.010743
v 0.218750 1.031250 0.010743
vt 0.750000 0.500000
vt 0.750000 0.750000
vt 0.500000 0.750000
vt 0.500000 0.500000
vn 0.0000 -0.0000 1.0000
usemtl m_fcf4259d-6d73-c19d-1633-aa271e7b12e4
s 1
f 145/189/41 146/190/41 147/191/41 148/192/41
o menu_level2_vmtype_on_2
v 0.343750 0.875000 0.010743
v 0.343750 1.000000 0.010743
v 0.218750 1.000000 0.010743
v 0.218750 0.875000 0.010743
vt 0.750000 0.500000
vt 0.750000 0.750000
vt 0.500000 0.750000
vt 0.500000 0.500000
vn 0.0000 -0.0000 1.0000
usemtl m_fcf4259d-6d73-c19d-1633-aa271e7b12e4
s 1
f 149/193/42 150/194/42 151/195/42 152/196/42
o menu_level3_on_2
v -0.218750 0.562500 0.007813
v -0.218750 0.687500 0.007813
v -0.343750 0.687500 0.007813
v -0.343750 0.562500 0.007813
vt 0.500000 0.750000
vt 0.500000 1.000000
vt 0.250000 1.000000
vt 0.250000 0.750000
vn 0.0000 -0.0000 1.0000
usemtl m_fcf4259d-6d73-c19d-1633-aa271e7b12e4
s 1
f 153/197/43 154/198/43 155/199/43 156/200/43
o menu_level1
v -0.218750 1.031250 0.011719
v -0.218750 1.156250 0.011719
v -0.343750 1.156250 0.011719
v -0.343750 1.031250 0.011719
v 0.187500 1.031250 0.011719
v 0.187500 1.156250 0.011719
v 0.062500 1.156250 0.011719
v 0.062500 1.031250 0.011719
v -0.218750 0.875000 0.011719
v -0.218750 1.000000 0.011719
v -0.343750 1.000000 0.011719
v -0.343750 0.875000 0.011719
v 0.187500 0.875000 0.011719
v 0.187500 1.000000 0.011719
v 0.062500 1.000000 0.011719
v 0.062500 0.875000 0.011719
v 0.187500 0.718750 0.011719
v 0.187500 0.843750 0.011719
v 0.062500 0.843750 0.011719
v 0.062500 0.718750 0.011719
v -0.218750 0.718750 0.011719
v -0.218750 0.843750 0.011719
v -0.343750 0.843750 0.011719
v -0.343750 0.718750 0.011719
v 0.187500 0.562500 0.011719
v 0.187500 0.687500 0.011719
v 0.062500 0.687500 0.011719
v 0.062500 0.562500 0.011719
v -0.218750 0.562500 0.011719
v -0.218750 0.687500 0.011719
v -0.343750 0.687500 0.011719
v -0.343750 0.562500 0.011719
vt 1.000000 0.750000
vt 1.000000 1.000000
vt 0.750000 1.000000
vt 0.750000 0.750000
vt 1.000000 0.500000
vt 1.000000 0.750000
vt 0.750000 0.750000
vt 0.750000 0.500000
vt 1.000000 0.750000
vt 1.000000 1.000000
vt 0.750000 1.000000
vt 0.750000 0.750000
vt 1.000000 0.500000
vt 1.000000 0.750000
vt 0.750000 0.750000
vt 0.750000 0.500000
vt 1.000000 0.500000
vt 1.000000 0.750000
vt 0.750000 0.750000
vt 0.750000 0.500000
vt 1.000000 0.750000
vt 1.000000 1.000000
vt 0.750000 1.000000
vt 0.750000 0.750000
vt 1.000000 0.500000
vt 1.000000 0.750000
vt 0.750000 0.750000
vt 0.750000 0.500000
vt 1.000000 0.750000
vt 1.000000 1.000000
vt 0.750000 1.000000
vt 0.750000 0.750000
vn 0.0000 -0.0000 1.0000
usemtl m_fcf4259d-6d73-c19d-1633-aa271e7b12e4
s 1
f 157/201/44 158/202/44 159/203/44 160/204/44
f 161/205/44 162/206/44 163/207/44 164/208/44
f 165/209/44 166/210/44 167/211/44 168/212/44
f 169/213/44 170/214/44 171/215/44 172/216/44
f 173/217/44 174/218/44 175/219/44 176/220/44
f 177/221/44 178/222/44 179/223/44 180/224/44
f 181/225/44 182/226/44 183/227/44 184/228/44
f 185/229/44 186/230/44 187/231/44 188/232/44
o menu_level1_vmtype_off_4
v 0.343750 1.031250 0.007813
v 0.343750 1.156250 0.007813
v 0.218750 1.156250 0.007813
v 0.218750 1.031250 0.007813
vt 0.750000 0.750000
vt 0.750000 1.000000
vt 0.500000 1.000000
vt 0.500000 0.750000
vn 0.0000 -0.0000 1.0000
usemtl m_fcf4259d-6d73-c19d-1633-aa271e7b12e4
s 1
f 189/233/45 190/234/45 191/235/45 192/236/45
o menu_level3_on_4
v -0.218750 0.875000 0.007813
v -0.218750 1.000000 0.007813
v -0.343750 1.000000 0.007813
v -0.343750 0.875000 0.007813
vt 0.500000 0.750000
vt 0.500000 1.000000
vt 0.250000 1.000000
vt 0.250000 0.750000
vn 0.0000 -0.0000 1.0000
usemtl m_fcf4259d-6d73-c19d-1633-aa271e7b12e4
s 1
f 193/237/46 194/238/46 195/239/46 196/240/46
o menu_level3_off_1
v -0.218750 1.031250 0.007813
v -0.218750 1.156250 0.007813
v -0.343750 1.156250 0.007813
v -0.343750 1.031250 0.007813
vt 0.500000 0.500000
vt 0.500000 0.750000
vt 0.250000 0.750000
vt 0.250000 0.500000
vn 0.0000 -0.0000 1.0000
usemtl m_fcf4259d-6d73-c19d-1633-aa271e7b12e4
s 1
f 197/241/47 198/242/47 199/243/47 200/244/47
o menu_level1_root
v -0.156250 1.187500 0.010743
v -0.156250 1.250000 0.010743
v -0.343750 1.250000 0.010743
v -0.343750 1.187500 0.010743
vt 0.343750 0.406250
vt 0.343750 0.468750
vt 0.281250 0.468750
vt 0.281250 0.406250
vn 0.0000 -0.0000 1.0000
usemtl m_fcf4259d-6d73-c19d-1633-aa271e7b12e4
s 1
f 201/245/48 202/246/48 203/247/48 204/248/48
o menu_root_solid
v 0.093750 1.187500 0.007813
v 0.093750 1.250000 0.007813
v -0.093750 1.250000 0.007813
v -0.093750 1.187500 0.007813
v -0.156250 1.187500 0.007813
v -0.156250 1.250000 0.007813
v -0.343750 1.250000 0.007813
v -0.343750 1.187500 0.007813
v 0.343750 1.187500 0.007813
v 0.343750 1.250000 0.007813
v 0.156250 1.250000 0.007813
v 0.156250 1.187500 0.007813
vt 0.437500 0.406250
vt 0.437500 0.468750
vt 0.375000 0.468750
vt 0.375000 0.406250
vt 0.437500 0.406250
vt 0.437500 0.468750
vt 0.375000 0.468750
vt 0.375000 0.406250
vt 0.437500 0.406250
vt 0.437500 0.468750
vt 0.375000 0.468750
vt 0.375000 0.406250
vn 0.0000 -0.0000 1.0000
usemtl m_fcf4259d-6d73-c19d-1633-aa271e7b12e4
s 1
f 205/249/49 206/250/49 207/251/49 208/252/49
f 209/253/49 210/254/49 211/255/49 212/256/49
f 213/257/49 214/258/49 215/259/49 216/260/49
o menu_level3_off_4
v -0.218750 0.562500 0.007813
v -0.218750 0.687500 0.007813
v -0.343750 0.687500 0.007813
v -0.343750 0.562500 0.007813
vt 0.500000 0.500000
vt 0.500000 0.750000
vt 0.250000 0.750000
vt 0.250000 0.500000
vn 0.0000 -0.0000 1.0000
usemtl m_fcf4259d-6d73-c19d-1633-aa271e7b12e4
s 1
f 217/261/50 218/262/50 219/263/50 220/264/50
