# Blender v2.79 (sub 0) OBJ File: ''
# www.blender.org
mtllib unu_tuningkit.mtl
o mesh
v 0.218750 0.062500 -0.281250
v 0.218750 0.062500 0.281250
v 0.156250 -0.000000 0.218750
v 0.156250 0.000000 -0.218750
v -0.156250 -0.000000 0.218750
v -0.218750 0.062500 0.281250
v -0.218750 0.062500 -0.281250
v -0.156250 0.000000 -0.218750
v -0.218750 0.437500 -0.281250
v -0.218750 0.437500 0.281250
v -0.156250 0.500000 0.281250
v -0.156250 0.500000 -0.281250
v -0.156250 0.062500 0.281250
v -0.218750 0.062500 0.281250
v -0.218750 0.062500 -0.281250
v -0.156250 0.062500 -0.281250
vt 0.281250 0.437500
vt 0.000000 0.437500
vt 0.031250 0.406250
vt 0.250000 0.406250
vt 0.843750 0.968750
vt 0.875000 1.000000
vt 0.593750 1.000000
vt 0.625000 0.968750
vt 0.000000 0.468750
vt 0.218750 0.468750
vt 0.218750 0.750000
vt 0.000000 0.750000
vt 0.625000 0.562500
vt 0.625000 0.781250
vt 0.468750 0.781250
vt 0.468750 0.562500
vt 0.500000 0.375000
vt 0.531250 0.406250
vt 0.312500 0.406250
vt 0.343750 0.375000
vt 0.781250 0.406250
vt 0.562500 0.406250
vt 0.593750 0.375000
vt 0.750000 0.375000
vt 0.750000 0.468750
vt 0.468750 0.468750
vt 0.468750 0.437500
vt 0.750000 0.437500
vt 0.750000 0.500000
vt 0.750000 0.531250
vt 0.468750 0.531250
vt 0.468750 0.500000
vt 0.250000 0.468750
vt 0.437500 0.468750
vt 0.437500 0.750000
vt 0.250000 0.750000
vt 0.281250 1.000000
vt 0.000000 1.000000
vt 0.000000 0.781250
vt 0.281250 0.781250
vt 0.812500 0.906250
vt 0.781250 0.937500
vt 0.593750 0.937500
vt 0.593750 0.906250
vt 0.812500 0.875000
vt 0.625000 0.875000
vt 0.593750 0.843750
vt 0.812500 0.843750
vn 0.7071 -0.7071 -0.0000
vn -0.7071 -0.7071 -0.0000
vn 0.0000 1.0000 0.0000
vn 0.0000 -1.0000 -0.0000
vn 0.0000 -0.7071 0.7071
vn 0.0000 -0.7071 -0.7071
vn -0.7071 0.7071 0.0000
vn -1.0000 0.0000 0.0000
vn 1.0000 0.0000 0.0000
vn -0.0000 -0.0000 1.0000
vn 0.0000 0.0000 -1.0000
usemtl m_4c7038cd-2a28-deb2-419d-b880f711f1bc
s 1
f 1/1/1 2/2/1 3/3/1 4/4/1
f 5/5/2 6/6/2 7/7/2 8/8/2
f 6/9/3 2/10/3 1/11/3 7/12/3
f 4/13/4 3/14/4 5/15/4 8/16/4
f 3/17/5 2/18/5 6/19/5 5/20/5
f 7/21/6 1/22/6 4/23/6 8/24/6
f 9/25/7 10/26/7 11/27/7 12/28/7
f 13/29/4 14/30/4 15/31/4 16/32/4
f 14/33/8 10/34/8 9/35/8 15/36/8
f 12/37/9 11/38/9 13/39/9 16/40/9
f 11/41/10 10/42/10 14/43/10 13/44/10
f 15/45/11 9/46/11 12/47/11 16/48/11
o screen
v -0.154297 0.437500 -0.218750
v -0.154297 0.437500 0.218750
v -0.154297 0.125000 0.218750
v -0.154297 0.125000 -0.218750
vt 0.562500 1.000000
vt 0.312500 1.000000
vt 0.312500 0.812500
vt 0.562500 0.812500
vn 1.0000 0.0000 0.0000
usemtl m_4c7038cd-2a28-deb2-419d-b880f711f1bc
s 1
f 17/49/12 18/50/12 19/51/12 20/52/12
o buttons
v -0.152344 0.179688 -0.210937
v -0.152344 0.179688 -0.085937
v -0.152344 0.132813 -0.085937
v -0.152344 0.132813 -0.210937
v -0.152344 0.179687 0.085938
v -0.152344 0.179687 0.210938
v -0.152344 0.132812 0.210938
v -0.152344 0.132812 0.085938
v -0.152344 0.429688 -0.210937
v -0.152344 0.429688 -0.164062
v -0.152344 0.382813 -0.164062
v -0.152344 0.382813 -0.210937
v -0.152344 0.429687 0.164063
v -0.152344 0.429687 0.210938
v -0.152344 0.382812 0.210938
v -0.152344 0.382812 0.164063
v -0.152344 0.179688 -0.062500
v -0.152344 0.179687 0.062500
v -0.152344 0.132812 0.062500
v -0.152344 0.132813 -0.062500
v -0.152344 0.367187 0.164063
v -0.152344 0.367187 0.210938
v -0.152344 0.320312 0.210938
v -0.152344 0.320312 0.164063
v -0.152344 0.367188 -0.210937
v -0.152344 0.367188 -0.164062
v -0.152344 0.320313 -0.164062
v -0.152344 0.320313 -0.210937
v -0.152344 0.304688 -0.210937
v -0.152344 0.304688 -0.164062
v -0.152344 0.257813 -0.164062
v -0.152344 0.257813 -0.210937
v -0.152344 0.304687 0.164063
v -0.152344 0.304687 0.210938
v -0.152344 0.257812 0.210938
v -0.152344 0.257812 0.164063
v -0.152344 0.242188 -0.210937
v -0.152344 0.242188 -0.164062
v -0.152344 0.195313 -0.164062
v -0.152344 0.195313 -0.210937
v -0.152344 0.242187 0.164063
v -0.152344 0.242187 0.210938
v -0.152344 0.195312 0.210938
v -0.152344 0.195312 0.164063
vt 0.093750 0.031250
vt 0.093750 0.093750
vt 0.031250 0.093750
vt 0.031250 0.031250
vt 0.093750 0.031250
vt 0.093750 0.093750
vt 0.031250 0.093750
vt 0.031250 0.031250
vt 0.093750 0.031250
vt 0.093750 0.093750
vt 0.031250 0.093750
vt 0.031250 0.031250
vt 0.093750 0.031250
vt 0.093750 0.093750
vt 0.031250 0.093750
vt 0.031250 0.031250
vt 0.093750 0.031250
vt 0.093750 0.093750
vt 0.031250 0.093750
vt 0.031250 0.031250
vt 0.093750 0.031250
vt 0.093750 0.093750
vt 0.031250 0.093750
vt 0.031250 0.031250
vt 0.093750 0.031250
vt 0.093750 0.093750
vt 0.031250 0.093750
vt 0.031250 0.031250
vt 0.093750 0.031250
vt 0.093750 0.093750
vt 0.031250 0.093750
vt 0.031250 0.031250
vt 0.093750 0.031250
vt 0.093750 0.093750
vt 0.031250 0.093750
vt 0.031250 0.031250
vt 0.093750 0.031250
vt 0.093750 0.093750
vt 0.031250 0.093750
vt 0.031250 0.031250
vt 0.093750 0.031250
vt 0.093750 0.093750
vt 0.031250 0.093750
vt 0.031250 0.031250
vn 1.0000 0.0000 0.0000
usemtl m_4c7038cd-2a28-deb2-419d-b880f711f1bc
s 1
f 21/53/13 22/54/13 23/55/13 24/56/13
f 25/57/13 26/58/13 27/59/13 28/60/13
f 29/61/13 30/62/13 31/63/13 32/64/13
f 33/65/13 34/66/13 35/67/13 36/68/13
f 37/69/13 38/70/13 39/71/13 40/72/13
f 41/73/13 42/74/13 43/75/13 44/76/13
f 45/77/13 46/78/13 47/79/13 48/80/13
f 49/81/13 50/82/13 51/83/13 52/84/13
f 53/85/13 54/86/13 55/87/13 56/88/13
f 57/89/13 58/90/13 59/91/13 60/92/13
f 61/93/13 62/94/13 63/95/13 64/96/13
